<svg width="210" height="236" viewBox="0 0 210 236" fill="none" xmlns="http://www.w3.org/2000/svg">
    <g filter="url(#filter0_b)">
        <path d="M8.61758 143.18C13.3549 144.416 16.7497 142.053 18.1557 136.665L18.3012 136.108C19.5557 131.301 18.1001 127.374 13.1538 126.083C8.92737 124.98 5.70831 126.67 4.79924 130.153C3.87805 133.683 5.83761 136.154 9.01905 136.984C11.0626 137.518 12.2733 136.966 13.2901 136.016C12.4811 138.83 11.2804 140.105 9.30655 139.589C8.02933 139.256 7.66995 138.542 7.72557 137.664L3.3598 136.524C2.87785 139.797 4.69303 142.156 8.61758 143.18ZM10.9569 134.216C9.58681 133.859 9.01141 132.642 9.36898 131.272C9.73867 129.855 10.8878 129.064 12.2114 129.409C13.6048 129.773 14.2206 131.025 13.8387 132.488C13.4933 133.811 12.327 134.574 10.9569 134.216Z" fill="url(#paint0_linear)" fill-opacity="0.5"/>
        <path d="M13.2901 136.016L13.7707 136.154L14.2702 134.416L12.9488 135.65L13.2901 136.016ZM7.72557 137.664L8.22457 137.695L8.25062 137.284L7.85183 137.18L7.72557 137.664ZM3.3598 136.524L3.48606 136.041L2.9464 135.9L2.86514 136.452L3.3598 136.524ZM8.49132 143.664C10.9685 144.31 13.158 144.027 14.9189 142.819C16.6675 141.618 17.918 139.556 18.6395 136.792L17.672 136.539C16.9874 139.162 15.8375 140.975 14.3529 141.994C12.8806 143.005 11.004 143.286 8.74384 142.696L8.49132 143.664ZM18.6395 136.792L18.785 136.234L17.8174 135.982L17.672 136.539L18.6395 136.792ZM18.785 136.234C19.4306 133.76 19.3966 131.448 18.5048 129.563C17.6051 127.662 15.8694 126.275 13.2801 125.599L13.0275 126.567C15.3845 127.182 16.8498 128.404 17.6009 129.991C18.3598 131.594 18.4263 133.649 17.8174 135.982L18.785 136.234ZM13.2801 125.599C11.0789 125.025 9.08867 125.165 7.50973 125.951C5.92317 126.74 4.8034 128.158 4.31545 130.027L5.28304 130.28C5.70416 128.666 6.64845 127.497 7.95529 126.846C9.26976 126.192 11.0023 126.039 13.0275 126.567L13.2801 125.599ZM4.31545 130.027C3.82389 131.911 4.09267 133.561 4.95418 134.858C5.80971 136.146 7.21253 137.03 8.89279 137.468L9.14531 136.501C7.64413 136.109 6.47645 135.342 5.78714 134.305C5.10381 133.276 4.85341 131.926 5.28304 130.28L4.31545 130.027ZM8.89279 137.468C9.98034 137.752 10.8856 137.757 11.6733 137.538C12.4601 137.32 13.0856 136.891 13.6315 136.381L12.9488 135.65C12.4778 136.09 11.9896 136.413 11.4059 136.574C10.8232 136.736 10.1013 136.75 9.14531 136.501L8.89279 137.468ZM12.8096 135.877C12.4125 137.259 11.9411 138.174 11.3936 138.686C10.8851 139.162 10.2735 139.325 9.43281 139.106L9.18029 140.073C10.3135 140.369 11.2892 140.153 12.0767 139.416C12.8253 138.716 13.3587 137.587 13.7707 136.154L12.8096 135.877ZM9.43281 139.106C8.86431 138.957 8.57231 138.743 8.41911 138.535C8.26753 138.329 8.20152 138.06 8.22457 137.695L7.22657 137.632C7.19401 138.147 7.27987 138.674 7.61339 139.127C7.94527 139.579 8.47157 139.888 9.18029 140.073L9.43281 139.106ZM7.85183 137.18L3.48606 136.041L3.23354 137.008L7.59931 138.148L7.85183 137.18ZM2.86514 136.452C2.60734 138.202 2.96159 139.753 3.94289 141.004C4.91564 142.244 6.46203 143.134 8.49132 143.664L8.74384 142.696C6.84858 142.201 5.52511 141.4 4.72962 140.387C3.94267 139.384 3.63031 138.119 3.85446 136.597L2.86514 136.452ZM11.0832 133.732C10.5229 133.586 10.1584 133.277 9.9587 132.893C9.75551 132.502 9.69926 131.986 9.85277 131.398L8.88518 131.145C8.68113 131.927 8.7338 132.705 9.07144 133.354C9.41261 134.01 10.0208 134.489 10.8307 134.7L11.0832 133.732ZM9.85277 131.398C10.0117 130.789 10.3282 130.349 10.7093 130.096C11.085 129.846 11.5557 129.755 12.0852 129.893L12.3377 128.925C11.5435 128.718 10.7778 128.85 10.1556 129.263C9.53882 129.673 9.09597 130.338 8.88518 131.145L9.85277 131.398ZM12.0852 129.893C12.6565 130.042 13.0369 130.361 13.2468 130.766C13.46 131.178 13.5208 131.726 13.3549 132.362L14.3225 132.614C14.5384 131.787 14.4823 130.977 14.1347 130.306C13.7838 129.629 13.1597 129.14 12.3377 128.925L12.0852 129.893ZM13.3549 132.362C13.2113 132.912 12.9051 133.32 12.5201 133.557C12.138 133.792 11.6454 133.879 11.0832 133.732L10.8307 134.7C11.6385 134.911 12.4142 134.796 13.0441 134.408C13.6711 134.022 14.1208 133.387 14.3225 132.614L13.3549 132.362Z" fill="white" fill-opacity="0.5"/>
    </g>
    <g filter="url(#filter1_b)">
        <path d="M192.632 101.482C196.56 103.75 199.727 103.112 201.359 100.285C202.403 98.4771 201.915 96.5876 200.414 95.2503C202.237 95.693 203.817 95.1642 204.777 93.5014C206.205 91.0281 205.03 88.2157 201.538 86.1997C197.838 84.0637 194.721 84.9518 192.842 87.7744L196.604 89.9464C197.466 88.8369 198.527 88.535 199.67 89.195C200.793 89.843 201.039 90.761 200.523 91.6547C199.923 92.6939 198.93 92.9247 197.6 92.1567L196.498 91.5207L194.974 94.1603L196.159 94.8443C197.489 95.6123 197.777 96.5543 197.105 97.7182C196.493 98.7783 195.489 99.0298 194.179 98.2738C192.703 97.4218 192.601 96.2544 193.185 94.9561L189.402 92.7721C187.667 96.0657 188.496 99.0939 192.632 101.482Z" fill="url(#paint1_linear)" fill-opacity="0.5"/>
        <path d="M200.414 95.2503L200.532 94.7644L200.082 95.6235L200.414 95.2503ZM192.842 87.7744L192.425 87.4973L192.13 87.9409L192.592 88.2074L192.842 87.7744ZM196.604 89.9464L196.354 90.3794L196.731 90.5973L196.998 90.2532L196.604 89.9464ZM196.498 91.5207L196.748 91.0877L196.315 90.8377L196.065 91.2707L196.498 91.5207ZM194.974 94.1603L194.541 93.9103L194.291 94.3434L194.724 94.5934L194.974 94.1603ZM193.185 94.9561L193.641 95.161L193.826 94.749L193.435 94.5231L193.185 94.9561ZM189.402 92.7721L189.652 92.3391L189.202 92.0792L188.96 92.5391L189.402 92.7721ZM192.382 101.915C194.408 103.085 196.298 103.54 197.933 103.288C199.585 103.033 200.909 102.065 201.792 100.535L200.926 100.035C200.178 101.332 199.102 102.096 197.78 102.3C196.442 102.506 194.784 102.147 192.882 101.049L192.382 101.915ZM201.792 100.535C202.372 99.5314 202.536 98.4825 202.331 97.4899C202.126 96.5025 201.564 95.6049 200.747 94.877L200.082 95.6235C200.765 96.233 201.197 96.9488 201.351 97.6926C201.504 98.4311 201.391 99.2312 200.926 100.035L201.792 100.535ZM200.296 95.7362C201.283 95.9759 202.241 95.961 203.098 95.6323C203.96 95.3019 204.68 94.6701 205.21 93.7514L204.344 93.2514C203.915 93.9956 203.364 94.4596 202.74 94.6985C202.112 94.9393 201.368 94.9674 200.532 94.7644L200.296 95.7362ZM205.21 93.7514C206.004 92.3773 206.076 90.8888 205.461 89.479C204.853 88.0871 203.594 86.8092 201.788 85.7667L201.288 86.6327C202.974 87.6062 204.048 88.7425 204.544 89.879C205.033 90.9978 204.979 92.1522 204.344 93.2514L205.21 93.7514ZM201.788 85.7667C199.86 84.6537 198.031 84.2991 196.405 84.6381C194.777 84.9776 193.423 85.9982 192.425 87.4973L193.258 88.0515C194.139 86.728 195.284 85.8932 196.609 85.617C197.937 85.3402 199.516 85.6097 201.288 86.6327L201.788 85.7667ZM192.592 88.2074L196.354 90.3794L196.854 89.5134L193.092 87.3414L192.592 88.2074ZM196.998 90.2532C197.385 89.7562 197.779 89.4877 198.155 89.3916C198.522 89.298 198.94 89.3506 199.42 89.628L199.92 88.762C199.258 88.3794 198.573 88.253 197.908 88.4227C197.253 88.5899 196.685 89.0271 196.209 89.6396L196.998 90.2532ZM199.42 89.628C199.91 89.911 200.147 90.2168 200.235 90.4873C200.32 90.7492 200.291 91.0552 200.09 91.4047L200.956 91.9047C201.27 91.3605 201.376 90.7606 201.186 90.1781C201 89.6042 200.552 89.127 199.92 88.762L199.42 89.628ZM200.09 91.4047C199.843 91.8314 199.555 92.0336 199.243 92.0919C198.914 92.1535 198.458 92.0745 197.85 91.7237L197.35 92.5897C198.073 93.0068 198.777 93.1965 199.427 93.0749C200.094 92.9501 200.602 92.5172 200.956 91.9047L200.09 91.4047ZM197.85 91.7237L196.748 91.0877L196.248 91.9537L197.35 92.5897L197.85 91.7237ZM196.065 91.2707L194.541 93.9103L195.407 94.4103L196.931 91.7707L196.065 91.2707ZM194.724 94.5934L195.909 95.2774L196.409 94.4113L195.224 93.7273L194.724 94.5934ZM195.909 95.2774C196.521 95.6306 196.807 95.9757 196.907 96.2866C197.003 96.5844 196.965 96.9612 196.672 97.4682L197.538 97.9682C197.917 97.3113 198.071 96.6352 197.859 95.979C197.651 95.336 197.127 94.8261 196.409 94.4113L195.909 95.2774ZM196.672 97.4682C196.418 97.9084 196.12 98.1222 195.803 98.1873C195.473 98.255 195.022 98.1829 194.429 97.8408L193.929 98.7068C194.646 99.1207 195.351 99.3009 196.004 99.1668C196.67 99.0301 197.18 98.5881 197.538 97.9682L196.672 97.4682ZM194.429 97.8408C193.775 97.4633 193.492 97.0577 193.396 96.6636C193.295 96.2537 193.373 95.7575 193.641 95.161L192.729 94.7512C192.413 95.453 192.25 96.1897 192.424 96.901C192.602 97.6282 193.107 98.2323 193.929 98.7068L194.429 97.8408ZM193.435 94.5231L189.652 92.3391L189.152 93.2051L192.935 95.3891L193.435 94.5231ZM188.96 92.5391C188.047 94.2721 187.778 95.998 188.343 97.63C188.903 99.2511 190.253 100.686 192.382 101.915L192.882 101.049C190.874 99.8897 189.742 98.6166 189.288 97.3032C188.837 96.0007 189.022 94.5658 189.844 93.0052L188.96 92.5391Z" fill="white" fill-opacity="0.5"/>
    </g>
    <g filter="url(#filter2_b)">
        <path d="M35.3838 36.687L40.2688 36.1014L38.2264 19.0634L34.0086 19.569L30.4291 22.7779L30.9175 26.8527L33.9184 24.4625L35.3838 36.687Z" fill="url(#paint2_linear)" fill-opacity="0.5"/>
        <path d="M35.3838 36.687L34.8873 36.7465L34.9468 37.243L35.4433 37.1835L35.3838 36.687ZM40.2688 36.1014L40.3283 36.5979L40.8247 36.5384L40.7652 36.0419L40.2688 36.1014ZM38.2264 19.0634L38.7228 19.0039L38.6633 18.5075L38.1669 18.567L38.2264 19.0634ZM34.0086 19.569L33.9491 19.0726L33.7924 19.0914L33.6748 19.1967L34.0086 19.569ZM30.4291 22.7779L30.0953 22.4056L29.9017 22.5792L29.9326 22.8374L30.4291 22.7779ZM30.9175 26.8527L30.4211 26.9122L30.5278 27.8023L31.229 27.2438L30.9175 26.8527ZM33.9184 24.4625L34.4148 24.403L34.3081 23.5129L33.6069 24.0714L33.9184 24.4625ZM35.4433 37.1835L40.3283 36.5979L40.2093 35.605L35.3242 36.1906L35.4433 37.1835ZM40.7652 36.0419L38.7228 19.0039L37.7299 19.1229L39.7723 36.161L40.7652 36.0419ZM38.1669 18.567L33.9491 19.0726L34.0681 20.0655L38.2859 19.5599L38.1669 18.567ZM33.6748 19.1967L30.0953 22.4056L30.7628 23.1502L34.3423 19.9413L33.6748 19.1967ZM29.9326 22.8374L30.4211 26.9122L31.414 26.7932L30.9255 22.7184L29.9326 22.8374ZM31.229 27.2438L34.2299 24.8536L33.6069 24.0714L30.606 26.4616L31.229 27.2438ZM33.4219 24.5221L34.8873 36.7465L35.8802 36.6275L34.4148 24.403L33.4219 24.5221Z" fill="white" fill-opacity="0.5"/>
    </g>
    <g filter="url(#filter3_b)">
        <path d="M174.362 197.151L187.692 193.579L186.741 190.033L181.177 191.523L182.893 188.654C184.269 186.372 185.085 184.314 184.476 182.043C183.656 178.983 180.916 177.381 176.859 178.468C172.849 179.543 170.91 182.323 171.86 186.516L176.172 185.361C175.853 183.335 176.402 182.417 177.584 182.1C178.766 181.784 179.545 182.37 179.843 183.483C180.216 184.874 179.505 186.58 178.331 188.783L174.182 196.479L174.362 197.151Z" fill="url(#paint3_linear)" fill-opacity="0.5"/>
        <path d="M174.362 197.151L173.879 197.281L174.008 197.764L174.491 197.634L174.362 197.151ZM187.692 193.579L187.821 194.062L188.304 193.933L188.175 193.45L187.692 193.579ZM186.741 190.033L187.224 189.903L187.095 189.42L186.612 189.55L186.741 190.033ZM181.177 191.523L180.748 191.267L180.115 192.326L181.307 192.006L181.177 191.523ZM182.893 188.654L182.465 188.395L182.464 188.397L182.893 188.654ZM171.86 186.516L171.372 186.627L171.487 187.134L171.989 186.999L171.86 186.516ZM176.172 185.361L176.301 185.844L176.736 185.727L176.666 185.283L176.172 185.361ZM178.331 188.783L178.771 189.02L178.772 189.018L178.331 188.783ZM174.182 196.479L173.742 196.242L173.647 196.416L173.699 196.608L174.182 196.479ZM174.491 197.634L187.821 194.062L187.562 193.096L174.232 196.668L174.491 197.634ZM188.175 193.45L187.224 189.903L186.258 190.162L187.209 193.709L188.175 193.45ZM186.612 189.55L181.048 191.04L181.307 192.006L186.871 190.516L186.612 189.55ZM181.607 191.78L183.322 188.91L182.464 188.397L180.748 191.267L181.607 191.78ZM183.321 188.912C184.712 186.606 185.623 184.393 184.959 181.913L183.993 182.172C184.546 184.236 183.827 186.137 182.465 188.395L183.321 188.912ZM184.959 181.913C184.517 180.264 183.544 178.972 182.105 178.253C180.673 177.537 178.842 177.419 176.73 177.985L176.989 178.951C178.934 178.43 180.501 178.569 181.658 179.147C182.808 179.722 183.615 180.761 183.993 182.172L184.959 181.913ZM176.73 177.985C174.643 178.544 173.032 179.565 172.079 181.053C171.122 182.546 170.876 184.434 171.372 186.627L172.348 186.406C171.895 184.405 172.143 182.807 172.921 181.592C173.702 180.373 175.065 179.467 176.989 178.951L176.73 177.985ZM171.989 186.999L176.301 185.844L176.043 184.878L171.731 186.033L171.989 186.999ZM176.666 185.283C176.513 184.311 176.584 183.692 176.768 183.302C176.937 182.942 177.231 182.713 177.714 182.583L177.455 181.617C176.755 181.805 176.184 182.193 175.862 182.877C175.555 183.531 175.512 184.385 175.678 185.439L176.666 185.283ZM177.714 182.583C178.2 182.453 178.537 182.522 178.773 182.675C179.018 182.834 179.232 183.134 179.36 183.612L180.326 183.353C180.156 182.718 179.831 182.169 179.317 181.836C178.794 181.497 178.151 181.431 177.455 181.617L177.714 182.583ZM179.36 183.612C179.512 184.179 179.453 184.848 179.19 185.677C178.927 186.507 178.475 187.45 177.89 188.548L178.772 189.018C179.362 187.912 179.851 186.901 180.144 185.979C180.436 185.057 180.547 184.177 180.326 183.353L179.36 183.612ZM177.891 188.545L173.742 196.242L174.622 196.716L178.771 189.02L177.891 188.545ZM173.699 196.608L173.879 197.281L174.845 197.022L174.665 196.349L173.699 196.608Z" fill="white" fill-opacity="0.5"/>
    </g>
    <g filter="url(#filter4_b)">
        <path d="M154.231 22.0362C158.171 20.2056 159.532 16.9267 157.995 13.6184C156.427 10.2449 153.665 9.19937 150.814 10.5243C148.877 11.4244 148.141 12.7456 147.948 13.8675L146.437 10.3882L153.706 7.0101L152.189 3.74538L141.699 8.62031L145.63 17.935L148.285 16.7011C148.525 15.849 149.075 14.9843 150.338 14.3977C151.687 13.7706 152.833 14.2437 153.481 15.6366C154.057 16.8772 153.915 18.1079 152.63 18.7047C151.194 19.3722 150.425 18.8562 149.767 17.8388L145.719 19.72C147.183 22.5859 150.096 23.9579 154.231 22.0362Z" fill="url(#paint4_linear)" fill-opacity="0.5"/>
        <path d="M147.948 13.8675L147.489 14.0666L148.156 15.6028L148.441 13.9523L147.948 13.8675ZM146.437 10.3882L146.226 9.93474L145.784 10.1402L145.978 10.5873L146.437 10.3882ZM153.706 7.0101L153.917 7.46353L154.37 7.25283L154.16 6.79939L153.706 7.0101ZM152.189 3.74538L152.643 3.53467L152.432 3.08123L151.979 3.29194L152.189 3.74538ZM141.699 8.62031L141.488 8.16688L141.05 8.37021L141.238 8.81474L141.699 8.62031ZM145.63 17.935L145.169 18.1294L145.371 18.6068L145.841 18.3884L145.63 17.935ZM148.285 16.7011L148.496 17.1545L148.705 17.0576L148.767 16.8362L148.285 16.7011ZM149.767 17.8388L150.187 17.5672L149.95 17.2021L149.556 17.3853L149.767 17.8388ZM145.719 19.72L145.508 19.2665L145.037 19.4853L145.273 19.9474L145.719 19.72ZM154.442 22.4896C156.493 21.5367 157.924 20.1823 158.625 18.5821C159.329 16.9737 159.27 15.1765 158.448 13.4077L157.541 13.8291C158.256 15.3686 158.285 16.8649 157.709 18.1808C157.129 19.5047 155.91 20.7051 154.021 21.5828L154.442 22.4896ZM158.448 13.4077C157.626 11.6392 156.465 10.4252 155.078 9.84785C153.685 9.26792 152.134 9.35938 150.603 10.0709L151.025 10.9777C152.345 10.3643 153.601 10.316 154.693 10.771C155.792 11.2285 156.795 12.224 157.541 13.8291L158.448 13.4077ZM150.603 10.0709C148.52 11.0388 147.677 12.4958 147.455 13.7826L148.441 13.9523C148.605 12.9954 149.233 11.8101 151.025 10.9777L150.603 10.0709ZM148.406 13.6683L146.896 10.189L145.978 10.5873L147.489 14.0666L148.406 13.6683ZM146.648 10.8416L153.917 7.46353L153.496 6.55667L146.226 9.93474L146.648 10.8416ZM154.16 6.79939L152.643 3.53467L151.736 3.95608L153.253 7.22081L154.16 6.79939ZM151.979 3.29194L141.488 8.16688L141.909 9.07375L152.4 4.19881L151.979 3.29194ZM141.238 8.81474L145.169 18.1294L146.091 17.7406L142.159 8.42589L141.238 8.81474ZM145.841 18.3884L148.496 17.1545L148.075 16.2477L145.419 17.4816L145.841 18.3884ZM148.767 16.8362C148.97 16.1125 149.43 15.3711 150.549 14.8511L150.127 13.9442C148.721 14.5975 148.079 15.5854 147.804 16.566L148.767 16.8362ZM150.549 14.8511C151.129 14.5814 151.607 14.5723 151.987 14.724C152.373 14.8779 152.741 15.2306 153.027 15.8473L153.934 15.4259C153.573 14.6496 153.045 14.0694 152.358 13.7953C151.666 13.5189 150.896 13.5868 150.127 13.9442L150.549 14.8511ZM153.027 15.8473C153.286 16.4038 153.357 16.9048 153.266 17.2996C153.18 17.6721 152.936 18.0112 152.42 18.2512L152.841 19.1581C153.609 18.8014 154.078 18.2267 154.24 17.5246C154.397 16.8447 154.252 16.11 153.934 15.4259L153.027 15.8473ZM152.42 18.2512C151.776 18.5505 151.37 18.545 151.084 18.4362C150.78 18.3205 150.496 18.0459 150.187 17.5672L149.347 18.1103C149.695 18.6491 150.125 19.1412 150.729 19.3709C151.351 19.6077 152.049 19.5263 152.841 19.1581L152.42 18.2512ZM149.556 17.3853L145.508 19.2665L145.929 20.1734L149.978 18.2922L149.556 17.3853ZM145.273 19.9474C146.052 21.4718 147.239 22.639 148.82 23.1493C150.399 23.659 152.294 23.488 154.442 22.4896L154.021 21.5828C152.034 22.506 150.404 22.6099 149.127 22.1976C147.851 21.7858 146.849 20.8341 146.164 19.4925L145.273 19.9474Z" fill="white" fill-opacity="0.5"/>
    </g>
    <g filter="url(#filter5_b)">
        <path d="M40.9852 227.89C44.4634 225.247 45.1138 221.739 42.9215 218.854C40.7438 215.987 37.552 216.031 35.0676 217.918C33.3858 219.196 32.9813 220.528 33.0811 221.929C31.4008 219.558 31.2354 217.634 32.726 216.502C33.7007 215.762 34.4076 215.978 35.0495 216.545L38.6424 213.816C36.3232 211.358 33.4768 211.381 30.4 213.718C26.9218 216.36 26.2254 220.958 29.6081 225.411L29.884 225.774C32.8457 229.673 36.6279 231.2 40.9852 227.89ZM38.8419 225.148C37.7143 226.004 36.3638 225.734 35.4492 224.53C34.6217 223.441 34.7091 222.048 35.8366 221.192C36.9641 220.335 38.2764 220.634 39.1475 221.781C40.0331 222.947 39.9312 224.32 38.8419 225.148Z" fill="url(#paint5_linear)" fill-opacity="0.5"/>
        <path d="M33.0811 221.929L32.6732 222.218L33.7069 223.676L33.5798 221.893L33.0811 221.929ZM35.0495 216.545L34.7184 216.92L35.0256 217.191L35.352 216.943L35.0495 216.545ZM38.6424 213.816L38.9448 214.214L39.3879 213.877L39.006 213.473L38.6424 213.816ZM41.2877 228.288C43.0973 226.913 44.2159 225.279 44.5695 223.564C44.9249 221.84 44.4938 220.097 43.3197 218.551L42.5234 219.156C43.5415 220.496 43.8813 221.95 43.5901 223.362C43.297 224.783 42.3513 226.224 40.6827 227.492L41.2877 228.288ZM43.3197 218.551C42.1538 217.016 40.6864 216.229 39.1498 216.105C37.6236 215.981 36.0855 216.517 34.7651 217.52L35.3701 218.316C36.5341 217.432 37.834 217.002 39.0693 217.101C40.2941 217.2 41.5115 217.824 42.5234 219.156L43.3197 218.551ZM34.7651 217.52C33.872 218.198 33.2897 218.913 32.9499 219.673C32.6096 220.433 32.5281 221.203 32.5824 221.964L33.5798 221.893C33.5343 221.254 33.6051 220.657 33.8626 220.081C34.1205 219.505 34.5814 218.915 35.3701 218.316L34.7651 217.52ZM33.489 221.64C32.6741 220.49 32.2691 219.505 32.2132 218.716C32.1598 217.961 32.4211 217.362 33.0285 216.9L32.4236 216.104C31.5403 216.775 31.139 217.704 31.2157 218.786C31.29 219.835 31.8079 220.997 32.6732 222.218L33.489 221.64ZM33.0285 216.9C33.4511 216.579 33.7513 216.513 33.9699 216.531C34.1974 216.551 34.4365 216.671 34.7184 216.92L35.3806 216.171C35.0207 215.853 34.5853 215.581 34.0552 215.535C33.5161 215.489 32.9755 215.685 32.4236 216.104L33.0285 216.9ZM35.352 216.943L38.9448 214.214L38.3399 213.418L34.7471 216.147L35.352 216.943ZM39.006 213.473C37.7714 212.164 36.3562 211.479 34.8087 211.469C33.2755 211.458 31.6894 212.111 30.0975 213.32L30.7025 214.116C32.1875 212.988 33.5629 212.46 34.8019 212.469C36.0265 212.477 37.1941 213.01 38.2787 214.159L39.006 213.473ZM30.0975 213.32C28.256 214.719 27.1331 216.653 26.9333 218.84C26.7338 221.024 27.4585 223.408 29.21 225.713L30.0062 225.109C28.375 222.961 27.7566 220.82 27.9291 218.931C28.1014 217.046 29.0658 215.359 30.7025 214.116L30.0975 213.32ZM29.21 225.713L29.4858 226.077L30.2821 225.472L30.0062 225.109L29.21 225.713ZM29.4858 226.077C31.0027 228.073 32.7769 229.528 34.7924 230.021C36.8317 230.52 39.0183 230.012 41.2877 228.288L40.6827 227.492C38.5948 229.078 36.7117 229.461 35.0301 229.05C33.3247 228.632 31.7269 227.373 30.2821 225.472L29.4858 226.077ZM38.5394 224.75C38.0778 225.1 37.5997 225.203 37.1577 225.12C36.7091 225.036 36.2446 224.751 35.8473 224.228L35.051 224.833C35.5684 225.514 36.2365 225.965 36.9737 226.103C37.7175 226.242 38.4783 226.052 39.1443 225.546L38.5394 224.75ZM35.8473 224.228C35.5007 223.771 35.362 223.275 35.4072 222.824C35.452 222.378 35.6797 221.939 36.1391 221.59L35.5341 220.794C34.866 221.301 34.4862 221.987 34.4122 222.724C34.3388 223.456 34.5701 224.2 35.051 224.833L35.8473 224.228ZM36.1391 221.59C36.6 221.24 37.0676 221.144 37.4939 221.226C37.9281 221.31 38.3731 221.588 38.7494 222.083L39.5456 221.478C39.0508 220.827 38.4041 220.383 37.6826 220.244C36.9531 220.104 36.2007 220.287 35.5341 220.794L36.1391 221.59ZM38.7494 222.083C39.1298 222.584 39.2758 223.099 39.2371 223.548C39.199 223.992 38.9781 224.416 38.5394 224.75L39.1443 225.546C39.7949 225.052 40.1697 224.375 40.2334 223.634C40.2967 222.899 40.0508 222.143 39.5456 221.478L38.7494 222.083Z" fill="white" fill-opacity="0.5"/>
    </g>
    <defs>
        <filter id="filter0_b" x="-2.75024" y="119.691" width="27.7825" height="30.0136" filterUnits="userSpaceOnUse" color-interpolation-filters="sRGB">
            <feFlood flood-opacity="0" result="BackgroundImageFix"/>
            <feGaussianBlur in="BackgroundImage" stdDeviation="2"/>
            <feComposite in2="SourceAlpha" operator="in" result="effect1_backgroundBlur"/>
            <feBlend mode="normal" in="SourceGraphic" in2="effect1_backgroundBlur" result="shape"/>
        </filter>
        <filter id="filter1_b" x="181.738" y="77.895" width="30.4485" height="31.7501" filterUnits="userSpaceOnUse" color-interpolation-filters="sRGB">
            <feFlood flood-opacity="0" result="BackgroundImageFix"/>
            <feGaussianBlur in="BackgroundImage" stdDeviation="2"/>
            <feComposite in2="SourceAlpha" operator="in" result="effect1_backgroundBlur"/>
            <feBlend mode="normal" in="SourceGraphic" in2="effect1_backgroundBlur" result="shape"/>
        </filter>
        <filter id="filter2_b" x="25.5447" y="14.5073" width="19.2801" height="27.124" filterUnits="userSpaceOnUse" color-interpolation-filters="sRGB">
            <feFlood flood-opacity="0" result="BackgroundImageFix"/>
            <feGaussianBlur in="BackgroundImage" stdDeviation="2"/>
            <feComposite in2="SourceAlpha" operator="in" result="effect1_backgroundBlur"/>
            <feBlend mode="normal" in="SourceGraphic" in2="effect1_backgroundBlur" result="shape"/>
        </filter>
        <filter id="filter3_b" x="165.246" y="172.16" width="27.058" height="29.6036" filterUnits="userSpaceOnUse" color-interpolation-filters="sRGB">
            <feFlood flood-opacity="0" result="BackgroundImageFix"/>
            <feGaussianBlur in="BackgroundImage" stdDeviation="2"/>
            <feComposite in2="SourceAlpha" operator="in" result="effect1_backgroundBlur"/>
            <feBlend mode="normal" in="SourceGraphic" in2="effect1_backgroundBlur" result="shape"/>
        </filter>
        <filter id="filter4_b" x="136.081" y="-1.38379" width="29.1261" height="30.9344" filterUnits="userSpaceOnUse" color-interpolation-filters="sRGB">
            <feFlood flood-opacity="0" result="BackgroundImageFix"/>
            <feGaussianBlur in="BackgroundImage" stdDeviation="2"/>
            <feComposite in2="SourceAlpha" operator="in" result="effect1_backgroundBlur"/>
            <feBlend mode="normal" in="SourceGraphic" in2="effect1_backgroundBlur" result="shape"/>
        </filter>
        <filter id="filter5_b" x="19.5649" y="204.865" width="31.7013" height="32.2984" filterUnits="userSpaceOnUse" color-interpolation-filters="sRGB">
            <feFlood flood-opacity="0" result="BackgroundImageFix"/>
            <feGaussianBlur in="BackgroundImage" stdDeviation="2"/>
            <feComposite in2="SourceAlpha" operator="in" result="effect1_backgroundBlur"/>
            <feBlend mode="normal" in="SourceGraphic" in2="effect1_backgroundBlur" result="shape"/>
        </filter>
        <linearGradient id="paint0_linear" x1="14.4816" y1="123.768" x2="-0.191655" y2="161.851" gradientUnits="userSpaceOnUse">
            <stop stop-color="white"/>
            <stop offset="1" stop-color="white" stop-opacity="0"/>
        </linearGradient>
        <linearGradient id="paint1_linear" x1="202.928" y1="84" x2="178.475" y2="116.635" gradientUnits="userSpaceOnUse">
            <stop stop-color="white"/>
            <stop offset="1" stop-color="white" stop-opacity="0"/>
        </linearGradient>
        <linearGradient id="paint2_linear" x1="34.4609" y1="16.6545" x2="32.2966" y2="57.0571" gradientUnits="userSpaceOnUse">
            <stop stop-color="white"/>
            <stop offset="1" stop-color="white" stop-opacity="0"/>
        </linearGradient>
        <linearGradient id="paint3_linear" x1="176.244" y1="175.941" x2="181.707" y2="216.313" gradientUnits="userSpaceOnUse">
            <stop stop-color="white"/>
            <stop offset="1" stop-color="white" stop-opacity="0"/>
        </linearGradient>
        <linearGradient id="paint4_linear" x1="146.255" y1="3.37135" x2="158.911" y2="42.1375" gradientUnits="userSpaceOnUse">
            <stop stop-color="white"/>
            <stop offset="1" stop-color="white" stop-opacity="0"/>
        </linearGradient>
        <linearGradient id="paint5_linear" x1="28.7731" y1="211.689" x2="49.6581" y2="246.753" gradientUnits="userSpaceOnUse">
            <stop stop-color="white"/>
            <stop offset="1" stop-color="white" stop-opacity="0"/>
        </linearGradient>
    </defs>
</svg>
