<svg width="39" height="39" viewBox="0 0 39 39" fill="none" xmlns="http://www.w3.org/2000/svg">
<g filter="url(#filter0_dd_13_1308)">
<rect x="4" y="4" width="30" height="30" rx="10" fill="#F1F1F1"/>
</g>
<g clip-path="url(#clip0_13_1308)">
<path d="M25 16.75C25 16.3375 24.6625 16 24.25 16H22V13.75C22 13.3375 21.6625 13 21.25 13C20.8375 13 20.5 13.3375 20.5 13.75V16H17.5V13.75C17.5 13.3375 17.1625 13 16.75 13C16.3375 13 16 13.3375 16 13.75V16H13.75C13.3375 16 13 16.3375 13 16.75C13 17.1625 13.3375 17.5 13.75 17.5H16V20.5H13.75C13.3375 20.5 13 20.8375 13 21.25C13 21.6625 13.3375 22 13.75 22H16V24.25C16 24.6625 16.3375 25 16.75 25C17.1625 25 17.5 24.6625 17.5 24.25V22H20.5V24.25C20.5 24.6625 20.8375 25 21.25 25C21.6625 25 22 24.6625 22 24.25V22H24.25C24.6625 22 25 21.6625 25 21.25C25 20.8375 24.6625 20.5 24.25 20.5H22V17.5H24.25C24.6625 17.5 25 17.1625 25 16.75ZM20.5 20.5H17.5V17.5H20.5V20.5Z" fill="#4A5662"/>
</g>
<defs>
<filter id="filter0_dd_13_1308" x="0" y="0" width="38.5" height="38.5" filterUnits="userSpaceOnUse" color-interpolation-filters="sRGB">
<feFlood flood-opacity="0" result="BackgroundImageFix"/>
<feColorMatrix in="SourceAlpha" type="matrix" values="0 0 0 0 0 0 0 0 0 0 0 0 0 0 0 0 0 0 127 0" result="hardAlpha"/>
<feOffset dx="1.5" dy="1.5"/>
<feGaussianBlur stdDeviation="1.5"/>
<feColorMatrix type="matrix" values="0 0 0 0 0.682353 0 0 0 0 0.682353 0 0 0 0 0.752941 0 0 0 0.4 0"/>
<feBlend mode="normal" in2="BackgroundImageFix" result="effect1_dropShadow_13_1308"/>
<feColorMatrix in="SourceAlpha" type="matrix" values="0 0 0 0 0 0 0 0 0 0 0 0 0 0 0 0 0 0 127 0" result="hardAlpha"/>
<feOffset dx="-1" dy="-1"/>
<feGaussianBlur stdDeviation="1.5"/>
<feColorMatrix type="matrix" values="0 0 0 0 1 0 0 0 0 1 0 0 0 0 1 0 0 0 1 0"/>
<feBlend mode="normal" in2="effect1_dropShadow_13_1308" result="effect2_dropShadow_13_1308"/>
<feBlend mode="normal" in="SourceGraphic" in2="effect2_dropShadow_13_1308" result="shape"/>
</filter>
<clipPath id="clip0_13_1308">
<rect width="18" height="18" fill="white" transform="translate(10 10)"/>
</clipPath>
</defs>
</svg>
