<svg width="74" height="52" viewBox="0 0 74 52" fill="none" xmlns="http://www.w3.org/2000/svg">
    <path d="M54.4405 11.4478C54.1863 11.6534 54.0241 11.9516 53.9896 12.2768C53.9552 12.6019 54.0513 12.9275 54.2568 13.1818C57.4698 17.1199 59.2169 22.0508 59.2 27.1333C59.1931 33.019 56.852 38.6617 52.6902 42.8235C48.5283 46.9853 42.8857 49.3264 37 49.3333C31.9175 49.3502 26.9866 47.6031 23.0485 44.3901C22.7942 44.1844 22.4685 44.0881 22.1432 44.1224C21.8179 44.1568 21.5196 44.3189 21.3138 44.5732C21.1081 44.8276 21.0118 45.1532 21.0461 45.4785C21.0805 45.8038 21.2426 46.1022 21.497 46.3079C26.2324 50.1398 32.2187 52.0831 38.3019 51.7631C44.3852 51.4432 50.1346 48.8828 54.442 44.5754C58.7494 40.2679 61.3099 34.5185 61.6298 28.4353C61.9497 22.3521 60.0065 16.3658 56.1746 11.6303C55.9688 11.3762 55.6705 11.2143 55.3454 11.1801C55.0202 11.1458 54.6947 11.2421 54.4405 11.4478Z"
          fill="#EAF2FB"/>
    <path d="M14.8001 27.1333C14.8069 21.2476 17.1481 15.6049 21.3099 11.4431C25.4717 7.28129 31.1144 4.94017 37.0001 4.93331C42.0827 4.91556 47.0139 6.66275 50.9515 9.87651C51.2059 10.0823 51.5315 10.1785 51.8568 10.1442C52.1821 10.1099 52.4805 9.94768 52.6862 9.69336C52.892 9.43904 52.9883 9.1134 52.9539 8.78809C52.9196 8.46277 52.7574 8.16442 52.5031 7.95868C47.7676 4.12682 41.7813 2.18356 35.6981 2.50347C29.6149 2.82339 23.8654 5.38383 19.558 9.69125C15.2506 13.9987 12.6901 19.7481 12.3702 25.8313C12.0503 31.9145 13.9936 37.9008 17.8254 42.6363C18.0312 42.8906 18.3295 43.0528 18.6548 43.0872C18.9802 43.1215 19.3058 43.0252 19.5601 42.8195C19.8144 42.6137 19.9766 42.3154 20.011 41.9901C20.0453 41.6647 19.949 41.3391 19.7433 41.0848C16.5295 37.1471 14.7823 32.2159 14.8001 27.1333Z"
          fill="#EAF2FB"/>
    <path d="M67.8334 19.7333C69.4683 19.7314 71.0357 19.0811 72.1917 17.925C73.3478 16.769 73.9981 15.2016 74.0001 13.5667V8.63334C74.0001 6.99784 73.3504 5.42932 72.1939 4.27285C71.0374 3.11638 69.4689 2.46667 67.8334 2.46667C66.1979 2.46667 64.6294 3.11638 63.4729 4.27285C62.3164 5.42932 61.6667 6.99784 61.6667 8.63334V13.5667C61.6706 14.4911 61.8834 15.4026 62.2892 16.2332C62.695 17.0638 63.2833 17.7919 64.0101 18.3631L63.0382 45.5914C63.0128 46.2376 63.1182 46.8823 63.348 47.4868C63.5778 48.0913 63.9273 48.6432 64.3755 49.1094C64.8238 49.5756 65.3615 49.9465 65.9565 50.1998C66.5516 50.4532 67.1916 50.5837 67.8384 50.5837C68.4851 50.5837 69.1251 50.4532 69.7202 50.1998C70.3152 49.9465 70.8529 49.5756 71.3012 49.1094C71.7494 48.6432 72.0989 48.0913 72.3287 47.4868C72.5585 46.8823 72.6639 46.2376 72.6385 45.5914L71.8257 22.9893C71.822 22.8268 71.7857 22.6667 71.7191 22.5184C71.6525 22.3701 71.557 22.2367 71.438 22.1259C71.3191 22.0151 71.1791 21.9292 71.0265 21.8733C70.8739 21.8174 70.7116 21.7926 70.5492 21.8004C70.2225 21.8123 69.9138 21.9534 69.6911 22.1928C69.4684 22.4322 69.3499 22.7502 69.3615 23.0769L70.1693 45.6802C70.1816 45.9941 70.1299 46.3072 70.0173 46.6004C69.9047 46.8936 69.7336 47.1609 69.5144 47.3859C69.067 47.8286 68.4629 48.0769 67.8334 48.0769C67.2039 48.0769 66.5999 47.8286 66.1524 47.3859C65.9332 47.1609 65.7621 46.8936 65.6495 46.6004C65.5369 46.3072 65.4852 45.9941 65.4975 45.6802L66.4299 19.557C66.8893 19.6698 67.3603 19.7289 67.8334 19.7333ZM64.1334 8.63334C64.1334 7.65204 64.5232 6.71093 65.2171 6.01705C65.911 5.32316 66.8521 4.93334 67.8334 4.93334C68.8147 4.93334 69.7558 5.32316 70.4497 6.01705C71.1436 6.71093 71.5334 7.65204 71.5334 8.63334V13.5667C71.5334 14.548 71.1436 15.4891 70.4497 16.183C69.7558 16.8769 68.8147 17.2667 67.8334 17.2667C66.8521 17.2667 65.911 16.8769 65.2171 16.183C64.5232 15.4891 64.1334 14.548 64.1334 13.5667V8.63334Z"
          fill="#EAF2FB"/>
    <path d="M8.88 21.8004C8.71811 21.8061 8.55894 21.8437 8.41157 21.9109C8.2642 21.9782 8.13152 22.0738 8.02111 22.1924C7.91071 22.3109 7.82473 22.45 7.7681 22.6018C7.71147 22.7536 7.6853 22.915 7.69107 23.0769L8.4989 45.6802C8.51095 45.994 8.45912 46.3071 8.34654 46.6003C8.23397 46.8935 8.06299 47.1608 7.844 47.3859C7.39651 47.8286 6.79244 48.0769 6.16297 48.0769C5.53349 48.0769 4.92942 47.8286 4.48193 47.3859C4.26294 47.1608 4.09197 46.8935 3.97939 46.6003C3.86681 46.3071 3.81498 45.994 3.82703 45.6802L4.76067 19.5582C5.66536 19.7803 6.60884 19.7928 7.51909 19.5947C8.42935 19.3966 9.2823 18.9931 10.0129 18.4151C10.7434 17.8371 11.3322 17.0998 11.7344 16.2595C12.1366 15.4192 12.3414 14.4982 12.3333 13.5667V1.23333C12.3333 0.906233 12.2034 0.59253 11.9721 0.361235C11.7408 0.12994 11.4271 0 11.1 0C10.7729 0 10.4592 0.12994 10.2279 0.361235C9.99661 0.59253 9.86667 0.906233 9.86667 1.23333V7.4H7.4V1.23333C7.4 0.906233 7.27006 0.59253 7.03876 0.361235C6.80747 0.12994 6.49377 0 6.16667 0C5.83957 0 5.52586 0.12994 5.29457 0.361235C5.06327 0.59253 4.93333 0.906233 4.93333 1.23333V7.4H2.46667V1.23333C2.46667 0.906233 2.33673 0.59253 2.10543 0.361235C1.87414 0.12994 1.56043 0 1.23333 0C0.906233 0 0.59253 0.12994 0.361235 0.361235C0.12994 0.59253 0 0.906233 0 1.23333V13.5667C0.00398922 14.4909 0.216831 15.4022 0.622616 16.2326C1.0284 17.0629 1.61663 17.7908 2.34333 18.3619L1.3653 45.5914C1.32602 46.2461 1.42106 46.902 1.64459 47.5187C1.86813 48.1353 2.21542 48.6997 2.66512 49.1772C3.11482 49.6547 3.65743 50.0352 4.2596 50.2952C4.86176 50.5553 5.51075 50.6895 6.16667 50.6895C6.82259 50.6895 7.47158 50.5553 8.07374 50.2952C8.6759 50.0352 9.21851 49.6547 9.66821 49.1772C10.1179 48.6997 10.4652 48.1353 10.6887 47.5187C10.9123 46.902 11.0073 46.2461 10.968 45.5914L10.1602 22.9893C10.1565 22.8265 10.1201 22.6661 10.0533 22.5175C9.98647 22.369 9.89056 22.2353 9.77121 22.1245C9.65186 22.0136 9.5115 21.9279 9.35842 21.8722C9.20535 21.8165 9.04267 21.7921 8.88 21.8004ZM9.86667 13.5667C9.86667 14.548 9.47685 15.4891 8.78296 16.183C8.08908 16.8768 7.14797 17.2667 6.16667 17.2667C5.18537 17.2667 4.24426 16.8768 3.55037 16.183C2.85649 15.4891 2.46667 14.548 2.46667 13.5667V9.86667H9.86667V13.5667Z"
          fill="#EAF2FB"/>
    <path d="M29.8121 37.7227C29.6395 37.8952 29.522 38.115 29.4744 38.3542C29.4268 38.5935 29.4512 38.8415 29.5445 39.0669C29.6379 39.2922 29.7959 39.4849 29.9988 39.6204C30.2016 39.756 30.4401 39.8283 30.684 39.8283C30.928 39.8283 31.1664 39.756 31.3693 39.6204C31.5721 39.4849 31.7302 39.2922 31.8235 39.0669C31.9168 38.8415 31.9412 38.5935 31.8936 38.3542C31.846 38.115 31.7285 37.8952 31.556 37.7227C31.3247 37.4915 31.0111 37.3616 30.684 37.3616C30.357 37.3616 30.0433 37.4915 29.8121 37.7227Z"
          fill="#EAF2FB"/>
    <path d="M34.1719 40.3386C34.3444 40.5112 34.5641 40.6287 34.8034 40.6763C35.0426 40.7239 35.2906 40.6995 35.516 40.6062C35.7414 40.5128 35.934 40.3547 36.0696 40.1519C36.2051 39.9491 36.2775 39.7106 36.2775 39.4667C36.2775 39.2227 36.2051 38.9843 36.0696 38.7814C35.934 38.5786 35.7414 38.4205 35.516 38.3272C35.2906 38.2338 35.0426 38.2094 34.8034 38.2571C34.5641 38.3047 34.3444 38.4222 34.1719 38.5947C33.9407 38.826 33.8108 39.1396 33.8108 39.4667C33.8108 39.7937 33.9407 40.1074 34.1719 40.3386Z"
          fill="#EAF2FB"/>
    <path d="M33.2999 22.2C33.2999 21.4682 33.0829 20.7529 32.6763 20.1444C32.2698 19.5359 31.6919 19.0617 31.0158 18.7816C30.3397 18.5016 29.5958 18.4283 28.8781 18.5711C28.1603 18.7139 27.5011 19.0663 26.9836 19.5837C26.4662 20.1012 26.1138 20.7604 25.971 21.4782C25.8282 22.1959 25.9015 22.9398 26.1815 23.6159C26.4616 24.292 26.9358 24.8699 27.5443 25.2764C28.1528 25.683 28.8681 25.9 29.5999 25.9C30.5812 25.9 31.5223 25.5102 32.2162 24.8163C32.9101 24.1224 33.2999 23.1813 33.2999 22.2ZM29.5999 23.4333C29.356 23.4333 29.1175 23.361 28.9147 23.2255C28.7119 23.09 28.5538 22.8973 28.4605 22.672C28.3671 22.4466 28.3427 22.1986 28.3903 21.9594C28.4379 21.7201 28.5553 21.5004 28.7278 21.3279C28.9003 21.1554 29.12 21.038 29.3593 20.9904C29.5985 20.9428 29.8465 20.9672 30.0719 21.0606C30.2972 21.1539 30.4899 21.312 30.6254 21.5148C30.7609 21.7176 30.8332 21.9561 30.8332 22.2C30.8332 22.5271 30.7033 22.8408 30.472 23.0721C30.2407 23.3034 29.927 23.4333 29.5999 23.4333Z"
          fill="#EAF2FB"/>
    <path d="M45.9946 18.1386C46.1671 18.3111 46.3869 18.4286 46.6261 18.4763C46.8654 18.5239 47.1134 18.4995 47.3388 18.4061C47.5642 18.3128 47.7568 18.1547 47.8923 17.9519C48.0279 17.7491 48.1002 17.5106 48.1002 17.2667C48.1002 17.0227 48.0279 16.7842 47.8923 16.5814C47.7568 16.3786 47.5642 16.2205 47.3388 16.1272C47.1134 16.0338 46.8654 16.0094 46.6261 16.0571C46.3869 16.1047 46.1671 16.2222 45.9946 16.3947C45.7634 16.626 45.6335 16.9396 45.6335 17.2667C45.6335 17.5937 45.7634 17.9073 45.9946 18.1386Z"
          fill="#EAF2FB"/>
    <path d="M43.5281 37.3614C43.3556 37.5339 43.2381 37.7536 43.1905 37.9929C43.1429 38.2321 43.1673 38.4801 43.2606 38.7055C43.3539 38.9309 43.512 39.1236 43.7148 39.2591C43.9177 39.3946 44.1561 39.467 44.4001 39.467C44.644 39.467 44.8825 39.3946 45.0853 39.2591C45.2882 39.1236 45.4462 38.9309 45.5396 38.7055C45.6329 38.4801 45.6573 38.2321 45.6097 37.9929C45.5621 37.7536 45.4446 37.5339 45.272 37.3614C45.0408 37.1302 44.7271 37.0003 44.4001 37.0003C44.073 37.0003 43.7594 37.1302 43.5281 37.3614Z"
          fill="#EAF2FB"/>
    <path d="M51.4386 20.6053C51.6111 20.4328 51.7286 20.213 51.7762 19.9738C51.8238 19.7345 51.7994 19.4865 51.7061 19.2611C51.6127 19.0358 51.4547 18.8431 51.2518 18.7076C51.049 18.572 50.8105 18.4997 50.5666 18.4997C50.3226 18.4997 50.0842 18.572 49.8813 18.7076C49.6785 18.8431 49.5204 19.0358 49.4271 19.2611C49.3338 19.4865 49.3094 19.7345 49.357 19.9738C49.4046 20.213 49.5221 20.4328 49.6946 20.6053C49.9259 20.8365 50.2395 20.9664 50.5666 20.9664C50.8936 20.9664 51.2073 20.8365 51.4386 20.6053Z"
          fill="#EAF2FB"/>
    <path d="M21.2404 38.3826L22.9844 40.1277C22.9844 40.1277 22.9992 40.1364 23.0041 40.1413C22.9728 40.4965 23.0195 40.8543 23.1409 41.1897C23.2624 41.525 23.4556 41.8297 23.7071 42.0826L25.4523 43.8277C25.9148 44.2898 26.5418 44.5493 27.1956 44.5493C27.8494 44.5493 28.4764 44.2898 28.9389 43.8277L32.428 47.3156C32.8906 47.778 33.5179 48.0378 34.1719 48.0378C34.826 48.0378 35.4533 47.778 35.9159 47.3156L37.6265 45.605C41.2576 45.4682 44.7695 44.2722 47.7292 42.1642C50.689 40.0562 52.9675 37.1284 54.2839 33.7415C54.3418 33.5903 54.3693 33.4291 54.3649 33.2671C54.3605 33.1052 54.3243 32.9458 54.2583 32.7978C54.1923 32.6499 54.0977 32.5165 53.9801 32.4051C53.8625 32.2937 53.7242 32.2066 53.5729 32.1487C53.4216 32.0908 53.2604 32.0632 53.0985 32.0676C52.9366 32.072 52.7771 32.1083 52.6292 32.1743C52.4813 32.2403 52.3478 32.3348 52.2364 32.4524C52.1251 32.57 52.0379 32.7084 51.98 32.8597C51.0201 35.3296 49.4675 37.5254 47.4588 39.2538C45.4502 40.9822 43.0474 42.19 40.4619 42.7708L41.1489 42.0838C41.3781 41.8547 41.5598 41.5828 41.6839 41.2834C41.8079 40.9841 41.8717 40.6632 41.8717 40.3392C41.8717 40.0152 41.8079 39.6944 41.6839 39.3951C41.5598 39.0957 41.3781 38.8238 41.1489 38.5947L37.661 35.1056C38.122 34.6422 38.3807 34.0152 38.3807 33.3617C38.3807 32.7081 38.122 32.0811 37.661 31.6177L35.9159 29.8738C35.9078 29.8661 35.8991 29.8591 35.89 29.8528C35.9227 29.499 35.8774 29.1423 35.7572 28.808C35.637 28.4736 35.4449 28.1697 35.1944 27.9177L34.1781 26.9027C35.4009 25.9754 36.2962 24.6823 36.7336 23.2113L37.5735 20.4129C38.1004 18.6599 37.9422 16.7722 37.1309 15.1314C36.3195 13.4906 34.9155 12.219 33.2025 11.5736C36.0048 10.8656 38.9487 10.951 41.7051 11.8203C41.0323 11.9754 40.4167 12.3166 39.9284 12.8048C39.4402 13.2931 39.0991 13.9088 38.944 14.5816C38.7889 15.2545 38.8261 15.9574 39.0513 16.6101C39.2765 17.2628 39.6807 17.839 40.2177 18.2731C40.3969 19.0278 40.777 19.7199 41.3179 20.276C41.3179 20.2994 41.3179 20.3241 41.3179 20.3475C41.3205 21.4062 41.6668 22.4354 42.3045 23.2804C41.9213 23.4598 41.572 23.7044 41.2722 24.0031C40.732 24.5449 40.3726 25.2404 40.2432 25.9945C40.1139 26.7485 40.2208 27.5241 40.5495 28.215L39.5283 29.2362C39.3036 29.4688 39.1793 29.7803 39.1821 30.1037C39.1849 30.4271 39.3146 30.7364 39.5433 30.9651C39.772 31.1937 40.0813 31.3234 40.4047 31.3263C40.7281 31.3291 41.0396 31.2048 41.2722 30.9801L43.0162 29.2362C43.2474 29.0049 43.3773 28.6912 43.3773 28.3642C43.3773 28.0372 43.2474 27.7235 43.0162 27.4922C42.8984 27.3785 42.8044 27.2424 42.7398 27.0919C42.6751 26.9414 42.6411 26.7796 42.6397 26.6158C42.6383 26.4521 42.6695 26.2897 42.7315 26.1381C42.7935 25.9865 42.8851 25.8488 43.0009 25.733C43.1167 25.6172 43.2544 25.5256 43.406 25.4636C43.5575 25.4016 43.7199 25.3704 43.8837 25.3718C44.0475 25.3732 44.2093 25.4073 44.3598 25.4719C44.5102 25.5365 44.6463 25.6305 44.7601 25.7483C44.9914 25.9795 45.305 26.1094 45.6321 26.1094C45.9591 26.1094 46.2727 25.9795 46.504 25.7483C46.739 25.5241 47.0512 25.399 47.376 25.399C47.7008 25.399 48.013 25.5241 48.248 25.7483C48.3626 25.8628 48.4536 25.9989 48.5157 26.1486C48.5777 26.2983 48.6097 26.4588 48.6097 26.6209C48.6097 26.783 48.5777 26.9434 48.5157 27.0932C48.4536 27.2429 48.3626 27.3789 48.248 27.4935C48.0167 27.7247 47.8869 28.0384 47.8869 28.3654C47.8869 28.6925 48.0167 29.0061 48.248 29.2374C48.3626 29.3519 48.4536 29.488 48.5157 29.6377C48.5777 29.7874 48.6097 29.9479 48.6097 30.11C48.6097 30.2721 48.5777 30.4325 48.5157 30.5823C48.4536 30.732 48.3626 30.868 48.248 30.9826C48.0132 31.2071 47.7008 31.3324 47.376 31.3324C47.0511 31.3324 46.7388 31.2071 46.504 30.9826C46.2727 30.7513 45.9591 30.6215 45.6321 30.6215C45.305 30.6215 44.9914 30.7513 44.7601 30.9826L43.0162 32.7265C42.8984 32.8403 42.8044 32.9764 42.7398 33.1268C42.6751 33.2773 42.6411 33.4391 42.6397 33.6029C42.6383 33.7667 42.6695 33.9291 42.7315 34.0806C42.7935 34.2322 42.8851 34.3699 43.0009 34.4857C43.1167 34.6015 43.2544 34.6931 43.406 34.7551C43.5575 34.8171 43.7199 34.8483 43.8837 34.8469C44.0475 34.8455 44.2093 34.8114 44.3598 34.7468C44.5102 34.6822 44.6463 34.5882 44.7601 34.4704L45.7801 33.4505C46.4732 33.7688 47.2464 33.87 47.9981 33.7408C48.7498 33.6116 49.4448 33.258 49.9919 32.7265C50.4838 32.234 50.8268 31.6126 50.9815 30.9339C51.1362 30.2552 51.0963 29.5466 50.8663 28.8896C51.9944 28.6763 53.0128 28.0763 53.746 27.1929C54.4793 26.3095 54.8815 25.198 54.8833 24.05C54.8837 23.5607 54.8079 23.0743 54.6588 22.6082C55.2855 21.9876 55.7341 21.2102 55.9577 20.357C56.1813 19.5039 56.1718 18.6064 55.9301 17.7582C55.6884 16.91 55.2234 16.1422 54.5837 15.5351C53.944 14.9279 53.153 14.5037 52.2933 14.3067C52.0408 13.22 51.428 12.2508 50.5547 11.5566C49.6814 10.8624 48.5989 10.4842 47.4833 10.4833C46.8732 10.4876 46.2695 10.6068 45.7036 10.8348C42.5709 9.15774 39.0211 8.41938 35.4795 8.70818C31.9379 8.99699 28.5546 10.3007 25.735 12.4632C22.9154 14.6257 20.779 17.5552 19.5818 20.9008C18.3845 24.2464 18.1772 27.8662 18.9847 31.3267C19.0481 31.5974 19.2011 31.8388 19.4189 32.0116C19.6368 32.1845 19.9066 32.2786 20.1847 32.2788C20.2798 32.2792 20.3747 32.268 20.4671 32.2455C20.785 32.1707 21.0603 31.9729 21.2325 31.6955C21.4048 31.418 21.46 31.0836 21.386 30.7655C20.683 27.7727 20.8668 24.6399 21.9151 21.7498C22.0082 22.8356 22.3455 23.8862 22.9017 24.8233C23.4322 25.7241 24.1537 26.4978 25.0154 27.0897C25.8771 27.6817 26.8581 28.0776 27.8893 28.2495L21.2441 34.8935C21.0147 35.1223 20.8327 35.3941 20.7083 35.6933C20.584 35.9925 20.5198 36.3132 20.5195 36.6372C20.5191 36.9613 20.5826 37.2822 20.7063 37.5816C20.83 37.8811 21.0115 38.1532 21.2404 38.3826ZM49.95 15.4167C49.95 15.7438 50.0799 16.0575 50.3112 16.2888C50.5425 16.5201 50.8562 16.65 51.1833 16.65C51.7176 16.649 52.2378 16.8219 52.6651 17.1427C53.0924 17.4634 53.4038 17.9146 53.552 18.4279C53.7002 18.9413 53.6773 19.4889 53.4867 19.9881C53.2961 20.4873 52.9482 20.9109 52.4956 21.1948C52.2279 21.3645 52.0358 21.6306 51.9591 21.9381C51.8824 22.2456 51.927 22.5708 52.0836 22.8463C52.253 23.1328 52.3608 23.4514 52.4001 23.7819C52.4394 24.1124 52.4093 24.4475 52.3118 24.7658C52.2143 25.084 52.0516 25.3784 51.8339 25.6302C51.6162 25.882 51.3484 26.0856 51.0476 26.2281C50.9616 25.3889 50.5892 24.6049 49.9931 24.0081C49.5786 23.6073 49.078 23.3065 48.5296 23.1286C47.9811 22.9508 47.3992 22.9006 46.8284 22.9819C46.6527 22.8787 46.4537 22.8218 46.25 22.8167C45.5958 22.8167 44.9684 22.5568 44.5058 22.0942C44.0432 21.6316 43.7833 21.0042 43.7833 20.35C43.7878 20.2786 43.7981 20.2076 43.8141 20.1379L43.8425 19.9751C43.8788 19.7476 43.8507 19.5145 43.7613 19.3022C43.6719 19.0899 43.5249 18.9068 43.3368 18.7738C43.1213 18.6191 42.9417 18.4199 42.8099 18.1896C42.6782 17.9594 42.5975 17.7035 42.5734 17.4393C42.5551 17.242 42.4895 17.052 42.3821 16.8854C42.2748 16.7188 42.1289 16.5805 41.9567 16.4823C41.7639 16.3788 41.6026 16.2252 41.4899 16.0376C41.3772 15.85 41.3173 15.6355 41.3166 15.4167C41.3178 15.1756 41.3896 14.9402 41.5231 14.7395C41.6566 14.5388 41.846 14.3816 42.0679 14.2874C42.2898 14.1932 42.5344 14.1661 42.7716 14.2094C43.0087 14.2527 43.228 14.3645 43.4022 14.5311C43.5387 14.6622 43.7035 14.7602 43.8838 14.8174C44.0642 14.8746 44.2554 14.8896 44.4425 14.8611C44.6295 14.8326 44.8076 14.7614 44.9627 14.6531C45.1179 14.5447 45.2461 14.4022 45.3373 14.2364C45.5977 13.7553 46.0114 13.375 46.5127 13.1559C47.014 12.9368 47.5741 12.8914 48.1041 13.0271C48.6341 13.1627 49.1035 13.4715 49.438 13.9044C49.7724 14.3373 49.9526 14.8696 49.95 15.4167ZM35.9171 33.3617C35.4547 33.8242 35.1949 34.4515 35.1949 35.1056C35.1949 35.7597 35.4547 36.387 35.9171 36.8495L39.405 40.3386L34.1719 45.5717L30.6841 42.0838C30.455 41.8546 30.183 41.6728 29.8837 41.5488C29.5844 41.4248 29.2635 41.361 28.9395 41.361C28.6155 41.361 28.2947 41.4248 27.9953 41.5488C27.696 41.6728 27.424 41.8546 27.195 42.0838L25.4683 40.351C25.4868 40.3275 25.5016 40.2992 25.5189 40.2745L34.1707 31.6227L35.9171 33.3617ZM25.0181 23.5653C24.5923 22.8557 24.3602 22.0467 24.345 21.2193C24.3299 20.3919 24.5322 19.575 24.9318 18.8503L26.4587 16.0518C27.0207 15.0122 27.9488 14.2183 29.063 13.8242C30.1772 13.4301 31.3981 13.4639 32.4888 13.9189C33.5796 14.3739 34.4624 15.2178 34.9662 16.2869C35.47 17.356 35.5588 18.5741 35.2153 19.705L34.3754 22.5034C34.0848 23.4885 33.4818 24.3525 32.6574 24.9651C31.833 25.5778 30.8318 25.9059 29.8047 25.9H29.1177C28.2898 25.904 27.4753 25.6905 26.7558 25.2808C26.0363 24.871 25.4371 24.2795 25.0181 23.5653ZM31.4598 28.1558C31.5906 28.1262 31.7213 28.0978 31.8496 28.0608L33.1766 29.3706C32.9014 29.4914 32.6507 29.6615 32.4366 29.8726L24.3324 37.9768L22.993 36.6374L31.4598 28.1558Z"
          fill="#EAF2FB"/>
</svg>
