<svg width="16" height="16" viewBox="0 0 16 16" fill="none" xmlns="http://www.w3.org/2000/svg">
    <path d="M0.5 7.16667H7.16667V0.5H0.5V7.16667ZM2.16667 2.16667H5.5V5.5H2.16667V2.16667Z" fill="#657280"/>
    <path d="M0.5 15.5H7.16667V8.83334H0.5V15.5ZM2.16667 10.5H5.5V13.8333H2.16667V10.5Z" fill="#657280"/>
    <path d="M8.83332 0.5V7.16667H15.5V0.5H8.83332ZM13.8333 5.5H10.5V2.16667H13.8333V5.5Z" fill="#657280"/>
    <path d="M15.5 13.8333H13.8333V15.5H15.5V13.8333Z" fill="#657280"/>
    <path d="M10.5 8.83334H8.83332V10.5H10.5V8.83334Z" fill="#657280"/>
    <path d="M12.1667 10.5H10.5V12.1667H12.1667V10.5Z" fill="#657280"/>
    <path d="M10.5 12.1667H8.83332V13.8333H10.5V12.1667Z" fill="#657280"/>
    <path d="M12.1667 13.8333H10.5V15.5H12.1667V13.8333Z" fill="#657280"/>
    <path d="M13.8333 12.1667H12.1667V13.8333H13.8333V12.1667Z" fill="#657280"/>
    <path d="M13.8333 8.83334H12.1667V10.5H13.8333V8.83334Z" fill="#657280"/>
    <path d="M15.5 10.5H13.8333V12.1667H15.5V10.5Z" fill="#657280"/>
</svg>
