<svg width="39" height="39" viewBox="0 0 39 39" fill="none" xmlns="http://www.w3.org/2000/svg">
<g filter="url(#filter0_dd_13_1315)">
<rect x="4" y="4" width="30" height="30" rx="10" fill="#F1F1F1"/>
</g>
<g clip-path="url(#clip0_13_1315)">
<path d="M16.75 19.75C18.4069 19.75 19.75 18.4069 19.75 16.75C19.75 15.0931 18.4069 13.75 16.75 13.75C15.0931 13.75 13.75 15.0931 13.75 16.75C13.75 18.4069 15.0931 19.75 16.75 19.75Z" fill="#4A5662"/>
<path d="M16.75 21.25C14.7475 21.25 10.75 22.255 10.75 24.25V25C10.75 25.4125 11.0875 25.75 11.5 25.75H22C22.4125 25.75 22.75 25.4125 22.75 25V24.25C22.75 22.255 18.7525 21.25 16.75 21.25ZM21.6025 15.8275C21.8425 16.42 21.8425 17.08 21.6025 17.6725C21.46 18.025 21.52 18.4225 21.79 18.6925L21.8125 18.715C22.2475 19.15 22.99 19.06 23.275 18.5125C23.845 17.425 23.845 16.15 23.26 15.0175C22.975 14.4625 22.225 14.3575 21.7825 14.8L21.775 14.8075C21.52 15.07 21.46 15.475 21.6025 15.8275ZM24.385 12.1675C24.085 12.4675 24.04 12.9325 24.2875 13.2775C25.765 15.3325 25.7575 18.085 24.265 20.215C24.025 20.5525 24.0775 21.0175 24.37 21.31L24.3925 21.3325C24.76 21.7 25.3825 21.67 25.6975 21.2575C27.76 18.6025 27.7675 14.98 25.6975 12.2425C25.3825 11.83 24.7525 11.8 24.385 12.1675Z" fill="#4A5662"/>
</g>
<defs>
<filter id="filter0_dd_13_1315" x="0" y="0" width="38.5" height="38.5" filterUnits="userSpaceOnUse" color-interpolation-filters="sRGB">
<feFlood flood-opacity="0" result="BackgroundImageFix"/>
<feColorMatrix in="SourceAlpha" type="matrix" values="0 0 0 0 0 0 0 0 0 0 0 0 0 0 0 0 0 0 127 0" result="hardAlpha"/>
<feOffset dx="1.5" dy="1.5"/>
<feGaussianBlur stdDeviation="1.5"/>
<feColorMatrix type="matrix" values="0 0 0 0 0.682353 0 0 0 0 0.682353 0 0 0 0 0.752941 0 0 0 0.4 0"/>
<feBlend mode="normal" in2="BackgroundImageFix" result="effect1_dropShadow_13_1315"/>
<feColorMatrix in="SourceAlpha" type="matrix" values="0 0 0 0 0 0 0 0 0 0 0 0 0 0 0 0 0 0 127 0" result="hardAlpha"/>
<feOffset dx="-1" dy="-1"/>
<feGaussianBlur stdDeviation="1.5"/>
<feColorMatrix type="matrix" values="0 0 0 0 1 0 0 0 0 1 0 0 0 0 1 0 0 0 1 0"/>
<feBlend mode="normal" in2="effect1_dropShadow_13_1315" result="effect2_dropShadow_13_1315"/>
<feBlend mode="normal" in="SourceGraphic" in2="effect2_dropShadow_13_1315" result="shape"/>
</filter>
<clipPath id="clip0_13_1315">
<rect width="18" height="18" fill="white" transform="translate(10 10)"/>
</clipPath>
</defs>
</svg>
